<svg width="813" height="263" viewBox="0 0 813 263" fill="none" xmlns="http://www.w3.org/2000/svg">
<rect x="60" y="70" width="87" height="86" fill="white"/>
<path d="M103.98 199.828C55.2012 199.828 15.2109 159.75 15.2109 111.059C15.2109 62.2793 55.2012 22.2891 103.98 22.2891C152.76 22.2891 192.75 62.2793 192.75 111.059C192.75 159.75 152.76 199.828 103.98 199.828ZM94.8398 153.07C98.707 153.07 102.135 151.049 104.508 147.709L142.916 89.5254C144.498 87.2402 145.289 84.8672 145.289 82.7578C145.289 77.1328 140.455 73.1777 135.006 73.1777C131.402 73.1777 128.502 75.1113 126.129 78.8906L94.752 128.637L80.9531 112.025C78.668 109.389 76.207 108.07 73.043 108.07C67.5059 108.07 62.9355 112.465 62.9355 118.002C62.9355 120.639 63.7266 122.836 65.8359 125.297L84.9961 147.885C87.7207 151.225 90.8848 153.07 94.8398 153.07ZM246.1 171H219.293V51.0293H242.232L290.484 122.045H291.451V51.0293H318.346V171H295.494L247.154 99.2812H246.1V171ZM444.029 118.354C444.029 152.104 424.43 173.197 390.416 173.197C356.49 173.197 336.891 152.104 336.891 118.354V104.379C336.891 70.2773 356.666 48.9199 390.592 48.9199C424.518 48.9199 444.029 70.4531 444.029 104.379V118.354ZM414.322 104.027C414.322 83.2852 404.654 72.4746 390.504 72.4746C376.266 72.4746 366.598 83.2852 366.598 104.027V118.441C366.598 139.271 376.266 149.555 390.504 149.555C404.654 149.555 414.322 139.271 414.322 118.441V104.027ZM511.969 171H482.965V74.7598H450.357V51.0293H544.664V74.7598H511.969V171ZM586.588 171H557.496V51.0293H586.588V171ZM636.598 171L598.453 51.0293H632.203L655.055 139.799H656.285L678.785 51.0293H710.777L673.16 171H636.598ZM804.205 147.973V171H723.609V51.0293H804.205V74.0566H752.35V99.9844H800.953V121.254H752.35V147.973H804.205Z" fill="#2A4FD3"/>
<path d="M727.727 238.766C727.727 235.445 730.461 232.711 733.781 232.711C737.102 232.711 739.836 235.445 739.836 238.766C739.836 242.125 737.102 244.859 733.781 244.859C730.461 244.859 727.727 242.125 727.727 238.766ZM749.016 192.281C749.016 189.078 751.672 186.852 754.836 186.852C758.039 186.852 760.656 189.078 760.656 192.281C760.656 195.484 758.039 197.672 754.836 197.672C751.672 197.672 749.016 195.484 749.016 192.281ZM749.719 244V202.555H759.992V244H749.719ZM784.875 202.008C790.5 202.008 794.836 204.703 796.672 208.609H797.062V187.867H807.375V244H797.258V237.594H796.828C794.875 241.852 790.539 244.508 784.875 244.508C774.797 244.508 769.016 237.008 769.016 224.977V221.5C769.016 209.664 774.992 202.008 784.875 202.008ZM788.156 210.25C783.195 210.25 779.562 214.078 779.562 221.852V224.703C779.562 232.477 783.195 236.305 788.234 236.305C793.664 236.305 797.141 232.281 797.141 224.742V221.852C797.141 214.586 793.625 210.25 788.156 210.25Z" fill="#2A4FD3"/>
</svg>
